<svg viewBox="0 0 13 16" xmlns="http://www.w3.org/2000/svg">
  <path d="M8.85 2.51c.61-.664.948-1.578.895-2.51C8.91 0 7.943.488 7.33 1.207c-.478.594-.993 1.526-.806 2.458.86.106 1.792-.435 2.325-1.154zm.815 1.36c-1.296 0-2.44.718-3.053.718-.64 0-1.57-.754-2.618-.72-1.366.028-2.617.835-3.318 2.024C.18 6.744-.017 7.747 0 8.768c.028 1.925.782 3.93 1.67 5.21C2.352 14.952 3.124 16 4.215 16c.985 0 1.35-.657 2.636-.657 1.198 0 1.57.657 2.61.657 1.09 0 1.81-.994 2.457-1.98.815-1.144 1.09-2.235 1.126-2.28-.035 0-2.094-.834-2.174-3.212 0-2.085 1.695-3.026 1.766-3.07-.923-1.42-2.414-1.59-2.973-1.59z" fill="#474747" fill-rule="evenodd"/>
</svg>
