<svg viewBox="0 0 11 15" xmlns="http://www.w3.org/2000/svg">
  <g fill="none" fill-rule="evenodd" opacity=".8">
    <path d="M1.5 9C.672 9 0 8.328 0 7.5S.672 6 1.5 6 3 6.672 3 7.5 2.328 9 1.5 9zm4 0C4.672 9 4 8.328 4 7.5S4.672 6 5.5 6 7 6.672 7 7.5 6.328 9 5.5 9zm4 0C8.672 9 8 8.328 8 7.5S8.672 6 9.5 6s1.5.672 1.5 1.5S10.328 9 9.5 9z" fill="#000"/>
    <path stroke="#000" opacity=".5" d="M5.5 9.5v5l4-3.5L7 9"/>
    <path stroke="#000" opacity=".5" d="M5.5 5.5v-5l4 3.5L7 6"/>
    <path d="M1 3.5L4 6" stroke="#000" opacity=".5"/>
    <path d="M1 11.5L4 9" stroke="#000" opacity=".5"/>
  </g>
</svg>
