<svg viewBox="0 0 22 15" xmlns="http://www.w3.org/2000/svg">
  <g fill="none" fill-rule="evenodd">
    <path d="M21.14 4.846C18.627 2.463 15.234 1 11.5 1 7.74 1 4.327 2.482 1.812 4.894" stroke="#000" stroke-width="1.2" stroke-linecap="square"/>
    <path d="M18.347 7.712C16.557 6.03 14.15 5 11.5 5 8.856 5 6.453 6.026 4.664 7.7" stroke="#000" stroke-width="1.2" stroke-linecap="square"/>
    <path d="M15.504 10.53C14.442 9.58 13.04 9 11.5 9c-1.525 0-2.917.57-3.976 1.506" stroke="#000" stroke-width="1.2" stroke-linecap="square"/>
    <path d="M11.5 15l1.976-1.532c-.457-.59-1.172-.968-1.976-.968-.826 0-1.56.4-2.014 1.02C11.48 15 11.5 15 11.5 15z" fill="#000" fill-rule="nonzero"/>
  </g>
</svg>
